<?xml version="1.0" encoding="UTF-8"?>
<svg width="104px" height="36px" viewBox="0 0 104 36" version="1.1" xmlns="http://www.w3.org/2000/svg" xmlns:xlink="http://www.w3.org/1999/xlink">
    <!-- Generator: Sketch 50.2 (55047) - http://www.bohemiancoding.com/sketch -->
    <title>App Store Badge US White</title>
    <desc>Created with Sketch.</desc>
    <defs></defs>
    <g id="Symbols" stroke="none" stroke-width="1" fill="none" fill-rule="evenodd">
        <g id="Footer-Desktop" transform="translate(-520.000000, -502.000000)" fill-rule="nonzero">
            <g id="App-Store-Badge-US-White" transform="translate(521.000000, 503.000000)">
                <path d="M6.54968069,33.9982223 C6.28613022,33.9982223 6.0289462,33.9947558 5.7674631,33.9887117 C5.22577967,33.9814594 4.68536229,33.9330035 4.15064308,33.8437415 C3.6520444,33.7555045 3.1690363,33.5913676 2.71755064,33.3567447 C2.27020487,33.1240659 1.86218956,32.818971 1.50913524,32.4531475 C1.15097054,32.0916333 0.852782066,31.6723386 0.626386492,31.2118791 C0.397496232,30.748427 0.239090551,30.2516623 0.156687449,29.7388895 C0.0676992527,29.1879093 0.0195529515,28.6307814 0.012663709,28.0723099 C0.00717956181,27.8848531 0,27.2607079 0,27.2607079 L0,6.72795043 C0,6.72795043 0.00764666583,6.1133959 0.0127069594,5.93284534 C0.0193033563,5.37525854 0.067169686,4.81899522 0.155891642,4.26887012 C0.238446849,3.75469264 0.396975162,3.25649539 0.625988589,2.79152515 C0.851552104,2.33138374 1.1480851,1.91177585 1.50409225,1.5489679 C1.85969926,1.18271275 2.26901973,0.876046744 2.71712679,0.640153195 C3.16757481,0.406284181 3.64967008,0.243305096 4.1472609,0.156676252 C4.68373622,0.066517534 5.22602972,0.0177733678 5.76959102,0.0108527659 L6.55010454,0 L95.4456656,0 L96.2355039,0.0112882987 C96.7741209,0.0178650194 97.3114882,0.0661743229 97.8430337,0.155805187 C98.3456618,0.243520661 98.8327813,0.407636938 99.2883747,0.642757503 C100.186095,1.11815136 100.916554,1.87026927 101.377368,2.79369392 C101.602726,3.25545428 101.758809,3.74958773 101.84032,4.25932396 C101.930098,4.81396285 101.980344,5.3745975 101.990658,5.93675625 C101.993166,6.18847642 101.993166,6.45886228 101.993166,6.72795043 C102,7.06126634 102,7.37852086 102,7.69837969 L102,26.3006692 C102,26.6235857 102,26.9386803 101.993166,27.2563526 C101.993166,27.5454042 101.993166,27.8101903 101.989793,28.0827094 C101.979703,28.6348367 101.930294,29.1854644 101.841963,29.7301788 C101.761249,30.2466506 101.603706,30.7472929 101.374859,31.2145456 C101.146863,31.6700073 100.850387,32.08567 100.496358,32.4462146 C100.142986,32.8140039 99.7342502,33.1208839 99.2858661,33.3550559 C98.8315349,33.5914824 98.3451324,33.7562263 97.8430337,33.8437415 C97.308355,33.9334799 96.7678857,33.9819389 96.2261618,33.9887117 C95.9728011,33.9947558 95.7075033,33.9982223 95.4499041,33.9982223 L94.512236,34 L6.54968069,33.9982223 Z" id="Background-White" stroke="#A6A6A6" stroke-width="0.5"></path>
                <path d="M35.7146229,22.713873 L31.6786869,22.713873 L30.709462,25.5073047 L29,25.5073047 L32.8227734,15.1723273 L34.5988444,15.1723273 L38.4216178,25.5073047 L36.6830122,25.5073047 L35.7146229,22.713873 Z M32.0966903,21.4248471 L35.2958351,21.4248471 L33.7187556,16.8913142 L33.6745883,16.8913142 L32.0966903,21.4248471 Z M46.6775089,21.7401979 C46.6775089,24.0817386 45.3935366,25.5861361 43.4559224,25.5861361 C42.4543865,25.6372739 41.5109944,25.1252407 41.0270365,24.2678398 L40.9903725,24.2678398 L40.9903725,28 L39.4058068,28 L39.4058068,17.9722756 L40.9395801,17.9722756 L40.9395801,19.2255393 L40.9687237,19.2255393 C41.474182,18.3735136 42.4185914,17.8617008 43.4267532,17.8934358 C45.3860418,17.8934441 46.6775089,19.4051572 46.6775089,21.7401979 Z M45.04881,21.7401979 C45.04881,20.2146694 44.2411197,19.2117238 43.0087754,19.2117238 C41.7980798,19.2117238 40.9837304,20.2357921 40.9837304,21.7401979 C40.9837304,23.2584192 41.7980798,24.275172 43.0087754,24.275172 C44.2411282,24.275172 45.0487759,23.2795503 45.0487759,21.7401979 L45.04881,21.7401979 Z M55.1744528,21.7401979 C55.1744528,24.0817386 53.8900627,25.5861361 51.9524485,25.5861361 C50.9509126,25.6372739 50.0075206,25.1252407 49.5235626,24.2678398 L49.4868986,24.2678398 L49.4868986,28 L47.9023329,28 L47.9023329,17.9722756 L49.4361062,17.9722756 L49.4361062,19.2255393 L49.4652498,19.2255393 C49.9707081,18.3735136 50.9151175,17.8617008 51.9232793,17.8934358 C53.8825764,17.8934441 55.1744528,19.4051572 55.1744528,21.7401979 Z M53.5453446,21.7401979 C53.5453446,20.2146694 52.7376544,19.2117238 51.50531,19.2117238 C50.2946145,19.2117238 49.480265,20.2357921 49.480265,21.7401979 C49.480265,23.2584192 50.2946145,24.275172 51.50531,24.275172 C52.7376544,24.275172 53.5453446,23.2795503 53.5453446,21.7401979 Z M60.7891225,22.6277176 C60.9065324,23.6526015 61.9265583,24.3255236 63.3204287,24.3255236 C64.6560291,24.3255236 65.6169236,23.6525682 65.6169236,22.7284624 C65.6169236,21.9262741 65.0373855,21.4459532 63.6651553,21.1167786 L62.2929252,20.7941122 C60.3486517,20.3357213 59.4460359,19.4481932 59.4460359,18.0079961 C59.4460359,16.2248172 61.0380964,15 63.2979529,15 C65.5361605,15 67.0699339,16.2248172 67.1215619,18.0079961 L65.5219895,18.0079961 C65.4262368,16.9766123 64.5527645,16.3540502 63.276287,16.3540502 C61.9998095,16.3540502 61.1263458,16.9839361 61.1263458,17.900718 C61.1263458,18.6313821 61.684235,19.0613265 63.0489704,19.3904595 L64.2155327,19.6700482 C66.3879584,20.1715168 67.2897386,21.0232994 67.2897386,22.5349958 C67.2897386,24.4685304 65.7126677,25.6795321 63.2029846,25.6795321 C60.8548618,25.6795321 59.269469,24.496977 59.1670486,22.6276427 L60.7891225,22.6277176 Z M70.711178,16.1890967 L70.711178,17.9722756 L72.1791693,17.9722756 L72.1791693,19.1970927 L70.711178,19.1970927 L70.711178,23.3510662 C70.711178,23.9963906 71.0051122,24.2971103 71.6504237,24.2971103 C71.8246981,24.2941441 71.9986906,24.2821984 72.1716745,24.2613232 L72.1716745,25.4788248 C71.8815417,25.5317394 71.5866461,25.5557042 71.2915431,25.550349 C69.7286346,25.550349 69.1191174,24.9773562 69.1191174,23.516028 L69.1191174,19.1970927 L67.9966883,19.1970927 L67.9966883,17.9722756 L69.1191004,17.9722756 L69.1191004,16.1890967 L70.711178,16.1890967 Z M73.028503,21.7401979 C73.028503,19.3694034 74.4590204,17.8796286 76.6897418,17.8796286 C78.9279494,17.8796286 80.3518076,19.3693701 80.3518076,21.7401979 C80.3518076,24.1175007 78.9354442,25.6007672 76.6897418,25.6007672 C74.4448579,25.6007672 73.028503,24.1174924 73.028503,21.7401979 Z M78.7372627,21.7401979 C78.7372627,20.113883 77.9737056,19.1540234 76.6897333,19.1540234 C75.4057609,19.1540234 74.6422039,20.1211985 74.6422039,21.7401979 C74.6422039,23.3730128 75.4057609,24.3255652 76.6897333,24.3255652 C77.9737056,24.3255652 78.7372541,23.3730128 78.7372541,21.7401979 L78.7372627,21.7401979 Z M81.6582473,17.9722756 L83.1695362,17.9722756 L83.1695362,19.2547848 L83.2062002,19.2547848 C83.416955,18.4291755 84.1919772,17.8609624 85.0630428,17.8934275 C85.2456499,17.8928051 85.4277532,17.9121622 85.6059425,17.9511362 L85.6059425,19.3978333 C85.3754122,19.3290749 85.1349295,19.2975057 84.8939793,19.3043708 C84.4281322,19.2859241 83.9772955,19.4671394 83.6598456,19.8004347 C83.3423958,20.13373 83.1900481,20.585807 83.2428045,21.0379638 L83.2428045,25.507288 L81.6582387,25.507288 L81.6582473,17.9722756 Z M92.9117336,23.294173 C92.698571,24.6620304 91.3338271,25.6007589 89.5877267,25.6007589 C87.3420242,25.6007589 85.9481453,24.1321152 85.9481453,21.7759517 C85.9481453,19.4124727 87.349519,17.8796203 89.5211176,17.8796203 C91.6569049,17.8796203 93,19.3116863 93,21.5963338 L93,22.126249 L87.5477006,22.126249 L87.5477006,22.2197116 C87.4967952,22.7806797 87.6952446,23.3359602 88.0925698,23.7443079 C88.489895,24.1526556 89.0478007,24.3747127 89.6243736,24.3539951 C90.3933299,24.4243206 91.1183052,23.9933259 91.4071124,23.2941647 L92.9117336,23.294173 Z M87.5551804,21.045296 L91.4145987,21.0452876 C91.4433547,20.5412203 91.2553717,20.0482953 90.8959399,19.6852715 C90.5365081,19.3222477 90.0382168,19.1220401 89.5211176,19.132884 C88.999928,19.1298482 88.4990887,19.3301496 88.1299207,19.6892677 C87.7607527,20.0483858 87.553845,20.5365642 87.5551804,21.045296 Z" id="App-Store" fill="#FFFFFF"></path>
                <path d="M31.8390729,7.23118992 C32.512274,7.18666949 33.1716597,7.42270593 33.6357383,7.87433181 C34.099817,8.32595768 34.3196722,8.94556913 34.2347903,9.56262226 C34.2347903,11.0616215 33.35567,11.9232757 31.8390729,11.9232757 L30,11.9232757 L30,7.23118992 L31.8390729,7.23118992 Z M30.7907876,11.2597135 L31.7507402,11.2597135 C32.2318445,11.2862154 32.7002967,11.111531 33.0260253,10.7841636 C33.3517538,10.4567961 33.5000807,10.0115981 33.429821,9.5721844 C33.4949689,9.13459421 33.344506,8.69306997 33.0195851,8.3683722 C32.6946642,8.04367443 32.2292878,7.86978231 31.7507402,7.89425675 L30.7907876,7.89425675 L30.7907876,11.2597135 Z M35.1280752,10.1512129 C35.0621902,9.51652979 35.392428,8.90229348 35.9802878,8.56611302 C36.5681476,8.22993255 37.3119903,8.22993255 37.8998501,8.56611302 C38.4877099,8.90229348 38.8179477,9.51652979 38.7520627,10.1512129 C38.8192013,10.786578 38.4892649,11.4020057 37.9008838,11.7389099 C37.3125028,12.0758141 36.5676351,12.0758141 35.9792541,11.7389099 C35.390873,11.4020057 35.0609366,10.786578 35.1280752,10.1512129 Z M37.9720948,10.1512129 C37.9720948,9.38367025 37.5979437,8.93481582 36.941319,8.93481582 C36.2821857,8.93481582 35.9113966,9.38367025 35.9113966,10.1512208 C35.9113966,10.9249128 36.2822113,11.3703072 36.941319,11.3703072 C37.5979607,11.3702994 37.9721033,10.9218302 37.9721033,10.1512129 L37.9720948,10.1512129 Z M43.5693266,11.923205 L42.782703,11.923205 L41.9885791,9.31531196 L41.9285842,9.31531196 L41.137788,11.923205 L40.3586564,11.923205 L39.2995428,8.38227979 L40.0686739,8.38227979 L40.7569727,11.0842136 L40.8136398,11.0842136 L41.6035997,8.38227979 L42.3310645,8.38227979 L43.1210245,11.0842136 L43.1810194,11.0842136 L43.8659818,8.38227979 L44.6242761,8.38227979 L43.5693266,11.923205 Z M45.5150694,8.38227979 L46.2450259,8.38227979 L46.2450259,8.94478687 L46.301693,8.94478687 C46.4987476,8.53063289 46.9592075,8.27729084 47.448303,8.31392935 C47.827008,8.2876899 48.198112,8.42157413 48.4568341,8.67777987 C48.7155562,8.93398561 48.8338201,9.28470977 48.7782341,9.63092551 L48.7782341,11.9231657 L48.0199398,11.9231657 L48.0199398,9.80640966 C48.0199398,9.23737579 47.7516224,8.95438833 47.1908138,8.95438833 C46.933944,8.94336286 46.6846587,9.03626618 46.5083128,9.20874189 C46.3319669,9.38121759 46.246148,9.6160641 46.2733552,9.85171188 L46.2733552,11.923205 L45.5150609,11.923205 L45.5150694,8.38227979 Z M49.9865115,7 L50.7448058,7 L50.7448058,11.9231971 L49.9865115,11.9231971 L49.9865115,7 Z M51.798919,10.1512129 C51.7330846,9.51648827 52.0633745,8.90223641 52.6512779,8.56605076 C53.2391814,8.22986511 53.9830622,8.22986511 54.5709657,8.56605076 C55.1588691,8.90223641 55.489159,9.51648827 55.4233246,10.1512129 C55.4903779,10.7866008 55.1603811,11.4020111 54.5719708,11.7389004 C53.9835605,12.0757898 53.2386831,12.0757898 52.6502728,11.7389004 C52.0618625,11.4020111 51.7318657,10.7866008 51.798919,10.1512129 Z M54.6429386,10.1512129 C54.6429386,9.38367025 54.2687874,8.93481582 53.6121628,8.93481582 C52.9530295,8.93481582 52.5822403,9.38367025 52.5822403,10.1512208 C52.5822403,10.9249128 52.9530551,11.3703072 53.6121628,11.3703072 C54.268796,11.3702994 54.6429471,10.9218302 54.6429471,10.1512129 L54.6429386,10.1512129 Z M56.2216211,10.9218302 C56.2216211,10.2844459 56.7365994,9.91699551 57.6507132,9.86477332 L58.6914981,9.80948433 L58.6914981,9.50384969 C58.6914981,9.12986462 58.4231807,8.91868757 57.9048745,8.91868757 C57.4815653,8.91868757 57.1882464,9.06190736 57.1040778,9.31225302 L56.3699487,9.31225302 C56.4474446,8.70405054 57.0682481,8.31394508 57.939868,8.31394508 C58.9031569,8.31394508 59.4464645,8.75587954 59.4464645,9.50384969 L59.4464645,11.9232128 L58.7164995,11.9232128 L58.7164995,11.4255962 L58.6565046,11.4255962 C58.4085796,11.788994 57.9676884,12.0013796 57.5023941,11.9815529 C57.1762117,12.01282 56.8508988,11.9154677 56.6068785,11.7135633 C56.3628583,11.5116588 56.2229063,11.2240468 56.2216211,10.9218302 Z M58.6914981,10.6192624 L58.6914981,10.3232292 L57.7532105,10.3785182 C57.2240676,10.4111522 56.9840795,10.577027 56.9840795,10.8891884 C56.9840795,11.2078766 57.2840625,11.3933318 57.6965776,11.3933318 C57.9407777,11.4161126 58.1845547,11.3465867 58.372103,11.2006701 C58.5596513,11.0547535 58.6749115,10.8449408 58.6914981,10.6192624 Z M60.4430745,10.1512129 C60.4430745,9.03234022 61.0672143,8.32353867 62.0379952,8.32353867 C62.5281911,8.30272382 62.9873051,8.54478339 63.2162708,8.94476328 L63.2729379,8.94476328 L63.2729379,7 L64.0312322,7 L64.0312322,11.9231971 L63.3046035,11.9231971 L63.3046035,11.3637568 L63.2446086,11.3637568 C62.9983353,11.7604182 62.533565,11.9983861 62.0380037,11.9815529 C61.0605501,11.9815922 60.4430745,11.272775 60.4430745,10.1512129 Z M61.2263958,10.1512129 C61.2263958,10.9022499 61.6105475,11.354179 62.253016,11.354179 C62.8921311,11.354179 63.2871281,10.8957309 63.2871281,10.1542876 C63.2871281,9.4163042 62.8879841,8.95132152 62.253016,8.95132152 C61.614686,8.95132152 61.2263702,9.40631743 61.2263702,10.1512129 L61.2263958,10.1512129 Z M67.1685791,10.1512129 C67.102694,9.51652979 67.4329318,8.90229348 68.0207917,8.56611302 C68.6086515,8.22993255 69.3524941,8.22993255 69.9403539,8.56611302 C70.5282138,8.90229348 70.8584516,9.51652979 70.7925665,10.1512129 C70.8597051,10.786578 70.5297687,11.4020057 69.9413877,11.7389099 C69.3530066,12.0758141 68.608139,12.0758141 68.0197579,11.7389099 C67.4313769,11.4020057 67.1014405,10.786578 67.1685791,10.1512129 Z M70.0125986,10.1512129 C70.0125986,9.38367025 69.6384475,8.93481582 68.9818229,8.93481582 C68.3226896,8.93481582 67.9519004,9.38367025 67.9519004,10.1512208 C67.9519004,10.9249128 68.3227152,11.3703072 68.9818229,11.3703072 C69.638456,11.3702994 70.0125986,10.9218302 70.0125986,10.1512129 Z M71.8100138,8.38227979 L72.5399789,8.38227979 L72.5399789,8.94478687 L72.5966459,8.94478687 C72.7937006,8.53063289 73.2541604,8.27729084 73.743256,8.31392935 C74.1219609,8.2876899 74.493065,8.42157413 74.7517871,8.67777987 C75.0105092,8.93398561 75.1287731,9.28470977 75.0731871,9.63092551 L75.0731871,11.9231657 L74.3148928,11.9231657 L74.3148928,9.80640966 C74.3148928,9.23737579 74.0465754,8.95438833 73.4857668,8.95438833 C73.228897,8.94336286 72.9796117,9.03626618 72.8032658,9.20874189 C72.6269199,9.38121759 72.541101,9.6160641 72.5683081,9.85171188 L72.5683081,11.923205 L71.8100138,11.923205 L71.8100138,8.38227979 Z M79.3579802,7.50069917 L79.3579802,8.39840803 L80.1904426,8.39840803 L80.1904426,8.98703014 L79.3579802,8.98703014 L79.3579802,10.8077923 C79.3579802,11.1787027 79.5238088,11.3411175 79.9012878,11.3411175 C79.9979278,11.3408325 80.0944708,11.3354476 80.1904426,11.3249893 L80.1904426,11.9070767 C80.0542654,11.9295279 79.9162935,11.9414722 79.7779616,11.9427853 C78.934671,11.9427853 78.5988497,11.6693993 78.5988497,10.9867128 L78.5988497,8.98699869 L77.9888831,8.98699869 L77.9888831,8.39837658 L78.5988497,8.39837658 L78.5988497,7.50069917 L79.3579802,7.50069917 Z M81.2262186,7 L81.9778487,7 L81.9778487,8.95131366 L82.0378436,8.95131366 C82.2443638,8.53353505 82.7128824,8.27987016 83.2094124,8.31700402 C83.5859669,8.29812137 83.9520474,8.43495312 84.2079417,8.69022936 C84.463836,8.9455056 84.5828912,9.29263776 84.5326793,9.63707485 L84.5326793,11.923205 L83.7736256,11.923205 L83.7736256,9.80946861 C83.7736256,9.24388685 83.4877731,8.95744727 82.9520001,8.95744727 C82.6881871,8.93750806 82.4282747,9.02589282 82.2417481,9.19897271 C82.0552214,9.3720526 81.9611002,9.61217893 81.984547,9.85515614 L81.984547,11.9231892 L81.2262528,11.9231892 L81.2262186,7 Z M88.9541697,10.9671324 C88.7415356,11.6350507 88.0401659,12.0666002 87.2892536,11.9915475 C86.7769068,12.0040115 86.2845129,11.8083026 85.9427159,11.4563469 C85.6009189,11.1043913 85.4442728,10.6317702 85.5143396,10.1638812 C85.4461338,9.69469184 85.602193,9.22131339 85.9420867,8.86638436 C86.2819804,8.51145532 86.7722632,8.30990063 87.2859172,8.31393722 C88.3550313,8.31393722 89,8.9870616 89,10.098975 L89,10.3428174 L86.2867985,10.3428174 L86.2867985,10.3819782 C86.2627887,10.6447327 86.3601651,10.9046308 86.5549801,11.0977553 C86.7497951,11.2908798 87.0239721,11.3993113 87.3100824,11.3963829 C87.6810694,11.4374267 88.0421999,11.267839 88.2242047,10.9671089 L88.9541697,10.9671324 Z M86.2867815,9.82599003 L88.2275155,9.82599003 C88.246845,9.58567868 88.1551551,9.34901935 87.9750411,9.17433258 C87.7949271,8.99964581 87.5431397,8.90317758 87.2817275,8.9087008 C87.0167738,8.90563313 86.7617046,9.00130355 86.5743802,9.17401 C86.3870558,9.34671646 86.2833539,9.58182025 86.2867985,9.82599003 L86.2867815,9.82599003 Z" id="Download-on-the" fill="#FFFFFF"></path>
                <path d="M20.5283753,17.3613788 C20.5468819,15.9239742 21.2998955,14.5962501 22.5235969,13.8433764 C21.7481119,12.7350302 20.4957913,12.0575081 19.1444182,12.0151959 C17.7226586,11.865846 16.3443357,12.8665804 15.6198183,12.8665804 C14.8812969,12.8665804 13.7658168,12.030025 12.5646195,12.0547537 C10.9841667,12.1058529 9.54647415,12.983296 8.77755122,14.3660524 C7.14013884,17.2031314 8.3615035,21.3727005 9.93003597,23.6660006 C10.7148111,24.7889608 11.6319805,26.0433294 12.832095,25.9988503 C14.0064731,25.9501018 14.4450819,25.2494362 15.8626485,25.2494362 C17.267066,25.2494362 17.6785624,25.9988503 18.9030291,25.9705692 C20.1631978,25.9501018 20.9571487,24.8426225 21.7144044,23.7090294 C22.2782646,22.9088814 22.7121538,22.0245433 23,21.0887726 C21.5033055,20.4552774 20.5301171,18.9876369 20.5283753,17.3613788 Z M17.9680584,10.7807012 C18.709978,10.0046285 19.0754952,9.00711554 18.9869867,8 C17.853509,8.1037355 16.8064928,8.57577905 16.0545567,9.32207579 C15.3120534,10.0583987 14.9359032,11.0217067 15.0089552,11.9998266 C16.1576261,12.0101296 17.2482643,11.5607959 17.9680584,10.7807012 Z" id="Icon" fill="#FFFFFF"></path>
            </g>
        </g>
    </g>
</svg>