<?xml version="1.0" encoding="UTF-8"?>
<svg width="115px" height="34px" viewBox="0 0 115 34" version="1.1" xmlns="http://www.w3.org/2000/svg" xmlns:xlink="http://www.w3.org/1999/xlink">
    <!-- Generator: Sketch 50.2 (55047) - http://www.bohemiancoding.com/sketch -->
    <title>Google Play Badge US</title>
    <desc>Created with Sketch.</desc>
    <defs>
        <linearGradient x1="91.488428%" y1="4.9481245%" x2="-38.3517333%" y2="71.9074222%" id="linearGradient-1">
            <stop stop-color="#00A0FF" offset="0%"></stop>
            <stop stop-color="#00A1FF" offset="1%"></stop>
            <stop stop-color="#00BEFF" offset="26%"></stop>
            <stop stop-color="#00D2FF" offset="51%"></stop>
            <stop stop-color="#00DFFF" offset="76%"></stop>
            <stop stop-color="#00E3FF" offset="100%"></stop>
        </linearGradient>
        <linearGradient x1="107.684729%" y1="50%" x2="-130.640394%" y2="50%" id="linearGradient-2">
            <stop stop-color="#FFE000" offset="0%"></stop>
            <stop stop-color="#FFBD00" offset="41%"></stop>
            <stop stop-color="#FFA500" offset="78%"></stop>
            <stop stop-color="#FF9C00" offset="100%"></stop>
        </linearGradient>
        <linearGradient x1="86.219293%" y1="17.8768889%" x2="-50.1497903%" y2="194.702638%" id="linearGradient-3">
            <stop stop-color="#FF3A44" offset="0%"></stop>
            <stop stop-color="#C31162" offset="100%"></stop>
        </linearGradient>
        <linearGradient x1="-18.7537448%" y1="-54.0521474%" x2="42.1210306%" y2="24.9170664%" id="linearGradient-4">
            <stop stop-color="#32A071" offset="0%"></stop>
            <stop stop-color="#2DA771" offset="7%"></stop>
            <stop stop-color="#15CF74" offset="48%"></stop>
            <stop stop-color="#06E775" offset="80%"></stop>
            <stop stop-color="#00F076" offset="100%"></stop>
        </linearGradient>
    </defs>
    <g id="Symbols" stroke="none" stroke-width="1" fill="none" fill-rule="evenodd">
        <g id="Footer-Desktop" transform="translate(-639.000000, -503.000000)" fill-rule="nonzero">
            <g id="Google-Play-Badge-US" transform="translate(639.000000, 503.000000)">
                <rect id="Background-Black" fill="#000000" x="0" y="0" width="115" height="34" rx="5"></rect>
                <path d="M110.740741,0.68 C112.716693,0.68 114.318519,2.27834344 114.318519,4.25 L114.318519,29.75 C114.318519,31.7216566 112.716693,33.32 110.740741,33.32 L4.25925926,33.32 C2.28330715,33.32 0.681481481,31.7216566 0.681481481,29.75 L0.681481481,4.25 C0.681481481,2.27834344 2.28330715,0.68 4.25925926,0.68 L110.740741,0.68 Z M110.740741,0 L4.25925926,0 C1.90693532,1.50990331e-15 0,1.90278981 0,4.25 L0,29.75 C0,32.0972102 1.90693532,34 4.25925926,34 L110.740741,34 C113.093065,34 115,32.0972102 115,29.75 L115,4.25 C115,1.90278981 113.093065,1.50990331e-15 110.740741,0 Z" id="Border-Gray" fill="#A6A6A6"></path>
                <path d="M58.1111925,17.9147261 C56.1239617,17.9238097 54.5196908,19.4943432 54.525918,21.4246034 C54.5321452,23.3548635 56.1465178,24.9156003 58.1337683,24.9125867 C60.1210187,24.9095731 61.7303662,23.3439475 61.7303882,21.4136779 C61.7443505,20.4787364 61.3669698,19.5783416 60.6846824,18.9187224 C60.0023949,18.2591033 59.0736582,17.8967749 58.1111925,17.9147261 Z M58.1111925,23.5377475 C57.215486,23.5985924 56.3725148,23.1214245 55.9854629,22.3344679 C55.598411,21.5475113 55.7459472,20.610716 56.3575065,19.972141 C56.9690658,19.333566 57.9203481,19.1230025 58.7563653,19.4411607 C59.5923826,19.7593189 60.1432132,20.5415328 60.1454009,21.4136779 C60.1729837,21.9592443 59.9725209,22.4925017 59.5895029,22.8924395 C59.2064849,23.2923774 58.6733902,23.5250824 58.1111925,23.5377475 Z M50.2201593,17.9147261 C48.2318049,17.9192704 46.6232785,19.4878111 46.6263956,21.4191535 C46.6295128,23.350496 48.2430946,24.9141302 50.2314538,24.9126189 C52.2198131,24.9111077 53.8308736,23.3450227 53.8308791,21.4136779 C53.8448414,20.4787364 53.4674607,19.5783416 52.7851733,18.9187224 C52.1028858,18.2591033 51.1741491,17.8967749 50.2116834,17.9147261 L50.2201593,17.9147261 Z M50.2201593,23.5377475 C49.3239852,23.6020236 48.4785562,23.127235 48.0887766,22.3407738 C47.698997,21.5543126 47.8442232,20.6162968 48.4549016,19.9759737 C49.0655799,19.3356506 50.0173805,19.1233855 50.8544541,19.4408393 C51.6915277,19.7582931 52.243452,20.5408344 52.2458918,21.4136779 C52.2734746,21.9592443 52.0730118,22.4925017 51.6899938,22.8924395 C51.3069758,23.2923774 50.7738811,23.5250824 50.2116834,23.5377475 L50.2201593,23.5377475 Z M40.8204215,18.9932265 L40.8204215,20.4751355 L44.4819966,20.4751355 C44.4245839,21.1731178 44.1258784,21.8317363 43.6344097,22.3439874 C42.8936383,23.076894 41.8684993,23.4716033 40.8119457,23.4307207 C38.5650212,23.4307207 36.7435289,21.6614587 36.7435289,19.4789634 C36.7435289,17.296468 38.5650212,15.527206 40.8119457,15.527206 C41.8441333,15.5108547 42.8408667,15.8927865 43.5835545,16.5892408 L44.6599898,15.5436717 C43.6470554,14.5473827 42.261928,13.9919928 40.8204215,14.0041329 C38.7683806,13.9265624 36.8370971,14.9456982 35.7873273,16.6600901 C34.7375576,18.374482 34.7375576,20.5093492 35.7873273,22.2237412 C36.8370971,23.9381331 38.7683806,24.9572689 40.8204215,24.8796984 C42.2882427,24.9441238 43.7130156,24.3887553 44.7277967,23.3566252 C45.6157929,22.4089622 46.0899053,21.1632033 46.0500322,19.8823719 C46.0527672,19.570338 46.0243818,19.2587803 45.9652735,18.9520624 L40.8204215,18.9932265 Z M79.2245801,20.1458224 C78.7720362,18.8526181 77.5446018,17.96499 76.1393641,17.9147261 C75.2022412,17.9129464 74.3061568,18.2880087 73.6638846,18.9508551 C73.0216124,19.6137015 72.6904447,20.5052044 72.7490168,21.4136779 C72.7282009,22.3434079 73.0975144,23.241389 73.7720983,23.9012878 C74.4466823,24.5611866 75.3685332,24.9262623 76.3258332,24.9126297 C77.5301341,24.9189352 78.6572422,24.3375218 79.3262905,23.3648581 L78.0972896,22.5415753 C77.7241362,23.1458172 77.0512457,23.514833 76.3258332,23.513049 C75.574525,23.5408637 74.8820888,23.1196843 74.5798043,22.4510142 L79.4025733,20.5162997 L79.2245801,20.1458224 Z M74.3085766,21.314884 C74.2738695,20.8004674 74.45379,20.2941327 74.8077769,19.9100269 C75.1617639,19.5259212 75.66002,19.2963771 76.1902193,19.2731427 C76.7490925,19.2373723 77.2760343,19.5289223 77.5294065,20.0140972 L74.3085766,21.314884 Z M70.3927255,24.706809 L71.9777128,24.706809 L71.9777128,14.4157743 L70.3927255,14.4157743 L70.3927255,24.706809 Z M67.7991098,18.6968447 L67.7397788,18.6968447 C67.2566222,18.1721475 66.5659195,17.8726398 65.8411843,17.8735619 C63.9172867,17.964182 62.4053531,19.5057033 62.4053531,21.3766302 C62.4053531,23.2475571 63.9172867,24.7890783 65.8411843,24.8796984 C66.5682688,24.8915732 67.2634485,24.5901242 67.7397788,24.0564156 L67.790634,24.0564156 L67.790634,24.5586181 C67.790634,25.900569 67.0532334,26.6168251 65.8666119,26.6168251 C65.0582709,26.5984473 64.3415728,26.1072405 64.0527761,25.3736681 L62.6712096,25.9335003 C63.2032243,27.1904975 64.4674417,28.0080563 65.8666119,27.9999401 C67.722827,27.9999401 69.2569592,26.9379053 69.2569592,24.3527974 L69.2569592,18.1205468 L67.7991098,18.1205468 L67.7991098,18.6968447 Z M65.985274,23.5377475 C64.8519552,23.4407316 63.9827454,22.5187663 63.9827454,21.4136779 C63.9827454,20.3085895 64.8519552,19.3866241 65.985274,19.2896083 C66.5329165,19.3169063 67.046017,19.5578093 67.408245,19.9576994 C67.770473,20.3575895 67.951144,20.882592 67.9092961,21.4136779 C67.9560276,21.9472058 67.7759347,22.4760676 67.4108899,22.8772999 C67.0458451,23.2785322 66.5276537,23.5171768 65.9767982,23.5377475 L65.985274,23.5377475 Z M86.6494406,14.4157743 L82.8607275,14.4157743 L82.8607275,24.706809 L84.4457149,24.706809 L84.4457149,20.8044486 L86.6579165,20.8044486 C87.8891922,20.8903696 89.0667361,20.3010186 89.7093393,19.2772368 C90.3519424,18.2534551 90.3519424,16.9667678 89.7093393,15.9429861 C89.0667361,14.9192043 87.8891922,14.3298533 86.6579165,14.4157743 L86.6494406,14.4157743 Z M86.6494406,19.3554709 L84.437239,19.3554709 L84.437239,15.8482863 L86.6833441,15.8482863 C87.6874384,15.8482863 88.5014178,16.6389253 88.5014178,17.6142279 C88.5014178,18.5895305 87.6874384,19.3801694 86.6833441,19.3801694 L86.6494406,19.3554709 Z M96.4221166,17.8735619 C95.2428798,17.8050969 94.1342143,18.422764 93.5996525,19.446032 L95.0066466,20.0140972 C95.2900845,19.5066818 95.8551867,19.209631 96.4475442,19.256677 C96.8539858,19.2105687 97.2624596,19.3249849 97.5812155,19.5742256 C97.8999714,19.8234663 98.1022867,20.1866366 98.1427178,20.5821623 L98.1427178,20.689189 C97.6336508,20.4273844 97.065937,20.2916465 96.4899235,20.2940133 C94.9727431,20.2940133 93.438611,21.1172961 93.438611,22.6074379 C93.4688593,23.2493587 93.7651356,23.8521011 94.2600339,24.2785351 C94.7549323,24.7049691 95.406367,24.9188312 96.0661301,24.8714656 C96.8791601,24.9281758 97.659228,24.5493258 98.1003384,23.8835262 L98.1511937,23.8835262 L98.1511937,24.706809 L99.6768499,24.706809 L99.6768499,20.7468188 C99.6768499,18.9438296 98.2698558,17.8982604 96.4644959,17.8982604 L96.4221166,17.8735619 Z M96.2271716,23.513049 C95.7101436,23.513049 94.9896948,23.2578313 94.9896948,22.6403692 C94.9896948,21.8170864 95.8881369,21.5454031 96.6848685,21.5454031 C97.1883706,21.5333354 97.6859794,21.6527488 98.1257661,21.8911819 C98.0161697,22.812777 97.2243775,23.5151406 96.2695509,23.5377475 L96.2271716,23.513049 Z M105.237019,18.1205468 L103.423184,22.5827394 L103.372328,22.5827394 L101.490686,18.1205468 L99.7955121,18.1205468 L102.617976,24.3610302 L101.007561,27.8270507 L102.660356,27.8270507 L107,18.1205468 L105.237019,18.1205468 Z M90.9890851,24.706809 L92.5740724,24.706809 L92.5740724,14.4157743 L90.9890851,14.4157743 L90.9890851,24.706809 Z" id="Google-Play" fill="#FFFFFF"></path>
                <path d="M40.1585533,8.69677305 C40.1877224,9.28713081 39.9575478,9.86288539 39.5217407,10.2896846 C39.0347487,10.7642155 38.3555109,11.0219666 37.6537571,10.9985303 C36.5774082,10.9906285 35.6109882,10.3782634 35.2013424,9.44457548 C34.7916967,8.51088757 35.0186568,7.43783327 35.7772827,6.72156269 C36.2702036,6.24952402 36.9495094,5.99003033 37.6537571,6.00475248 C38.0127136,6.00363062 38.3681215,6.0713906 38.6981298,6.20386643 C39.0053744,6.32011198 39.2788893,6.50298062 39.4962682,6.7374918 L39.046254,7.15961337 C38.7026697,6.77626044 38.1868838,6.56680326 37.6537571,6.59412976 C37.1178576,6.59166383 36.6040177,6.79410998 36.2307238,7.15478617 C35.85743,7.51546235 35.6569067,8.0032332 35.6753927,8.50562366 C35.6640166,9.26479711 36.1406705,9.95584183 36.8835818,10.2572357 C37.6264931,10.5586295 38.4897584,10.4111805 39.0717265,9.88349217 C39.3329975,9.61790333 39.4836874,9.27300984 39.4962682,8.91181611 L37.6537571,8.91181611 L37.6537571,8.33836794 L40.12459,8.33836794 C40.1472377,8.45665288 40.1586038,8.57659555 40.1585533,8.69677305 Z M44.0473556,6.70563357 L41.7548302,6.70563357 L41.7548302,8.21889957 L43.8435756,8.21889957 L43.8435756,8.79234774 L41.7548302,8.79234774 L41.7548302,10.3056137 L44.0473556,10.3056137 L44.0473556,10.894991 L41.0755635,10.894991 L41.0755635,6.11625629 L44.0473556,6.11625629 L44.0473556,6.70563357 Z M46.8323493,10.894991 L46.1785551,10.894991 L46.1785551,6.70563357 L44.7520949,6.70563357 L44.7520949,6.11625629 L48.2927729,6.11625629 L48.2927729,6.70563357 L46.8323493,6.70563357 L46.8323493,10.894991 Z M50.7890783,10.894991 L50.7890783,6.11625629 L51.4428725,6.11625629 L51.4428725,10.894991 L50.7890783,10.894991 Z M54.346738,10.894991 L53.6929437,10.894991 L53.6929437,6.70563357 L52.2664835,6.70563357 L52.2664835,6.11625629 L55.7647073,6.11625629 L55.7647073,6.70563357 L54.346738,6.70563357 L54.346738,10.894991 Z M62.3960492,10.2737555 C61.362706,11.2376485 59.6934251,11.2376485 58.6600819,10.2737555 C57.6583918,9.2791685 57.6583918,7.72411426 58.6600819,6.72952725 C59.1542472,6.2626024 59.8266511,6 60.5280655,6 C61.22948,6 61.9018839,6.2626024 62.3960492,6.72952725 C63.402014,7.72251634 63.402014,9.28076642 62.3960492,10.2737555 Z M59.1440595,9.87552762 C59.9093588,10.5903985 61.1467723,10.5903985 61.9120716,9.87552762 C62.6636788,9.09832307 62.6636788,7.91292425 61.9120716,7.1357197 C61.1467723,6.4208488 59.9093588,6.4208488 59.1440595,7.1357197 C58.3924523,7.91292425 58.3924523,9.09832307 59.1440595,9.87552762 Z M64.0687436,10.894991 L64.0687436,6.11625629 L64.866882,6.11625629 L67.3462057,9.83570483 L67.3462057,6.11625629 L68,6.11625629 L68,10.894991 L67.3207332,10.894991 L64.7310287,7.00032222 L64.7310287,10.894991 L64.0687436,10.894991 Z" id="GET-IT-ON" stroke="#FFFFFF" stroke-width="0.2" fill="#FFFFFF"></path>
                <g id="Icon" transform="translate(8.000000, 6.000000)">
                    <path d="M1.2096,0.456923077 C0.935814564,0.787860899 0.797625066,1.21151878 0.8232,1.64153846 L0.8232,20.3584615 C0.797625066,20.7884812 0.935814564,21.2121391 1.2096,21.5430769 L1.2684,21.6023077 L11.676,11.1269231 L11.676,10.8815385 L1.2684,0.397692308 L1.2096,0.456923077 Z" id="Shape" fill="url(#linearGradient-1)"></path>
                    <path d="M15.12,14.6215385 L11.676,11.1269231 L11.676,10.8815385 L15.12,7.37846154 L15.1956,7.42076923 L19.32,9.78153846 C20.496,10.45 20.496,11.55 19.32,12.2269231 L15.2124,14.5792308 L15.12,14.6215385 Z" id="Shape" fill="url(#linearGradient-2)"></path>
                    <path d="M15.2208,14.5707692 L11.676,11 L1.2096,21.5430769 C1.70412289,21.9809805 2.43804033,22.0023063 2.9568,21.5938462 L15.2292,14.5707692" id="Shape" fill="url(#linearGradient-3)"></path>
                    <path d="M15.2208,7.42923077 L2.9484,0.406153846 C2.42964033,-0.00230628462 1.69572289,0.0190195073 1.2012,0.456923077 L11.676,11 L15.2208,7.42923077 Z" id="Shape" fill="url(#linearGradient-4)"></path>
                    <path d="M15.12,14.4946154 L2.9484,21.4753846 C2.45031237,21.8505155 1.76648763,21.8505155 1.2684,21.4753846 L1.2096,21.5346154 L1.2684,21.5938462 C1.76555046,21.9718055 2.45124954,21.9718055 2.9484,21.5938462 L15.2208,14.5707692 L15.12,14.4946154 Z" id="Shape" fill="#000000" opacity="0.2"></path>
                    <path d="M1.2096,21.4246154 C0.935814564,21.0936776 0.797625066,20.6700197 0.8232,20.24 L0.8232,20.3669231 C0.797625066,20.7969428 0.935814564,21.2206006 1.2096,21.5515385 L1.2684,21.4923077 L1.2096,21.4246154 Z M19.32,12.1 L15.12,14.4946154 L15.1956,14.5707692 L19.32,12.2184615 C19.7963389,11.9930573 20.1167135,11.5283382 20.16,11 C20.0642648,11.4779398 19.754033,11.8841957 19.32,12.1 Z" id="Shape" fill="#000000" opacity="0.12"></path>
                    <path d="M2.9484,0.524615385 L19.32,9.9 C19.754033,10.1158043 20.0642648,10.5220602 20.16,11 C20.1167135,10.4716618 19.7963389,10.0069427 19.32,9.78153846 L2.9484,0.406153846 C1.7724,-0.262307692 0.8148,0.296153846 0.8148,1.65 L0.8148,1.77692308 C0.84,0.414615385 1.7808,-0.143846154 2.9484,0.524615385 Z" id="Shape" fill="#FFFFFF" opacity="0.25"></path>
                </g>
            </g>
        </g>
    </g>
</svg>